<?xml version="1.0" encoding="UTF-8" standalone="no"?>
<!-- Created with Inkscape (http://www.inkscape.org/) -->

<svg
   width="135.91061mm"
   height="125.39591mm"
   viewBox="0 0 135.91062 125.39591"
   version="1.1"
   id="svg1"
   xml:space="preserve"
   inkscape:export-filename="steelpan simulator vector logo.png"
   inkscape:export-xdpi="96"
   inkscape:export-ydpi="96"
   inkscape:version="1.4 (86a8ad7, 2024-10-11)"
   sodipodi:docname="vectorsteelpan.svg"
   xmlns:inkscape="http://www.inkscape.org/namespaces/inkscape"
   xmlns:sodipodi="http://sodipodi.sourceforge.net/DTD/sodipodi-0.dtd"
   xmlns="http://www.w3.org/2000/svg"
   xmlns:svg="http://www.w3.org/2000/svg"><sodipodi:namedview
     id="namedview1"
     pagecolor="#ffffff"
     bordercolor="#000000"
     borderopacity="0.25"
     inkscape:showpageshadow="2"
     inkscape:pageopacity="0.0"
     inkscape:pagecheckerboard="0"
     inkscape:deskcolor="#d1d1d1"
     inkscape:document-units="mm"
     inkscape:zoom="0.97134925"
     inkscape:cx="59.19601"
     inkscape:cy="166.26358"
     inkscape:window-width="1920"
     inkscape:window-height="991"
     inkscape:window-x="1911"
     inkscape:window-y="-9"
     inkscape:window-maximized="1"
     inkscape:current-layer="layer1" /><defs
     id="defs1" /><g
     inkscape:label="Layer 1"
     inkscape:groupmode="layer"
     id="layer1"
     style="display:inline"
     transform="translate(-42.49244,-124.20867)"><path
       style="display:inline;fill:#965700;fill-opacity:1;fill-rule:evenodd;stroke:#000000;stroke-width:1.2;stroke-linecap:round;stroke-linejoin:round;stroke-dasharray:none"
       d="m 122.39817,136.96475 c 2.57388,-0.84108 6.30094,0.23592 8.08477,1.83206 2.23186,1.99704 3.28262,5.17692 3.28262,5.17692 -0.9002,4.86669 -4.16434,16.67479 -9.48591,16.72346 -1.50298,0.0137 -7.47306,3.7442 -9.24882,1.61751 -2.69887,-3.23225 -1.29639,-13.6221 -1.29639,-13.6221 0.2891,-2.4189 0.43302,-4.85409 1.38135,-6.48465 1.87945,-3.23152 5.22673,-4.57146 7.28238,-5.2432 z"
       id="path3"
       sodipodi:nodetypes="sscsscss" /><path
       style="display:inline;fill:#c8c8c8;fill-opacity:1;fill-rule:evenodd;stroke:#000000;stroke-width:1.2;stroke-linecap:round;stroke-linejoin:round;stroke-dasharray:none"
       d="m 103.42996,169.54231 -5.098097,6.55617 -2.042906,9.80594 -6.746428,9.09878 13.296231,4.56191 1.75802,-2.76519 0.27238,-9.94214 5.74626,-14.73659 2.06699,-5.95034 z"
       id="path4"
       sodipodi:nodetypes="cccccccccc" /><path
       style="display:inline;fill:#ffffff;fill-opacity:1;fill-rule:evenodd;stroke:#000000;stroke-width:1.2;stroke-linecap:round;stroke-linejoin:round;stroke-dasharray:none"
       d="m 130.26929,160.91288 3.67723,4.63058 -0.27239,8.37592 -2.24719,-0.20429 -2.99627,-2.1791 -11.03169,8.44401 5.37965,-8.64831 3.67724,-2.0429 3.54103,-5.51584 z"
       id="path5" /><path
       style="display:inline;fill:#fff6f6;fill-opacity:1;fill-rule:evenodd;stroke:#000000;stroke-width:1.2;stroke-linecap:round;stroke-linejoin:round;stroke-dasharray:none"
       d="m 117.39898,179.98 -1.66082,-15.69689 -7.73378,4.77768 3.85912,1.15076 z"
       id="path6" /><path
       style="display:inline;fill:#fff6f6;fill-opacity:1;fill-rule:evenodd;stroke:#000000;stroke-width:1.2;stroke-linecap:round;stroke-linejoin:round;stroke-dasharray:none"
       d="m 146.23687,177.72811 4.14105,26.57977 -14.01216,-1.54086 -0.33706,-9.82296 4.04474,-18.92364 1.10749,-1.15564 z"
       id="path7"
       sodipodi:nodetypes="ccccccc" /><path
       style="display:inline;fill:#fff6f6;fill-opacity:1;fill-rule:evenodd;stroke:#000000;stroke-width:1.2;stroke-linecap:round;stroke-linejoin:round;stroke-dasharray:none"
       d="m 133.89706,167.06423 7.28387,5.80055 -5.15223,20.07928 0.33706,9.82296 -11.21936,4.86333 -20.36819,-7.94504 0.0909,-12.82753 6.99434,-16.64623 5.53548,9.76845 11.03169,-8.44401 5.24346,2.38339 z"
       id="path8" /><path
       style="display:inline;fill:#fff6f6;fill-opacity:1;fill-rule:evenodd;stroke:#000000;stroke-width:1.2;stroke-linecap:round;stroke-linejoin:round;stroke-dasharray:none"
       d="m 140.3142,233.53599 -1.44455,-11.65272 -1.73346,-2.79281 1.37232,-8.85992 -9.84703,2.98541 -0.77313,3.58931 -2.30858,9.02645 1.73346,10.11187 z"
       id="path9"
       sodipodi:nodetypes="ccccccccc" /><path
       style="display:inline;fill:#965700;fill-opacity:1;fill-rule:evenodd;stroke:#000000;stroke-width:1.2;stroke-linecap:round;stroke-linejoin:round;stroke-dasharray:none"
       d="m 149.61571,204.22406 -1.26017,3.02107 -19.69406,5.97082 -4.28551,-2.8891 0.77043,-2.6965 11.21936,-4.86333 z"
       id="path10" /><path
       style="display:inline;fill:#fff6f6;fill-opacity:1;fill-rule:evenodd;stroke:#000000;stroke-width:1.2;stroke-linecap:round;stroke-linejoin:round;stroke-dasharray:none"
       d="m 102.37062,239.12159 -1.92607,14.25292 19.357,-1.54086 V 239.2179 Z"
       id="path11" /><path
       style="display:inline;fill:#fff6f6;fill-opacity:1;fill-rule:evenodd;stroke:#000000;stroke-width:1.2;stroke-linecap:round;stroke-linejoin:round;stroke-dasharray:none"
       d="m 140.3142,233.53599 0.19261,18.97179 -12.51946,-0.38521 -0.67412,-16.17899 z"
       id="path12" /><rect
       style="display:inline;fill:#8a4600;fill-opacity:1;fill-rule:evenodd;stroke:#000000;stroke-width:1.2;stroke-linecap:round;stroke-linejoin:round;stroke-dasharray:none"
       id="rect15"
       width="2.0223734"
       height="57.300583"
       x="67.219841"
       y="195.20718" /><path
       style="display:inline;fill:#7c7c7c;fill-opacity:1;fill-rule:evenodd;stroke:#000000;stroke-width:1.2;stroke-linecap:round;stroke-linejoin:round;stroke-dasharray:none"
       d="m 61.287172,218.31853 c 1.29996,-2.73042 4.750201,-4.22855 10.350723,-4.4944 8.426836,0.33006 16.870846,1.73739 25.33203,4.22201 13.011845,2.70518 20.113745,8.94174 27.306845,15.52609 -0.3114,2.78984 -1.80313,4.67174 -4.47522,5.64567 -7.51951,0.34606 -15.03926,-0.0831 -22.559236,-1.28748 -10.357981,-2.74294 -18.768099,-6.45982 -27.374937,-10.07833 -5.484747,-4.81828 -5.758527,-6.3797 -8.580205,-9.53356 z"
       id="path13"
       sodipodi:nodetypes="cccccccc" /><path
       style="display:inline;fill:#00b8ea;fill-opacity:1;fill-rule:evenodd;stroke:#000000;stroke-width:1.2;stroke-linecap:round;stroke-linejoin:round;stroke-dasharray:none"
       d="m 67.219842,199.25194 -5.93267,19.06659 c 5.688615,-9.94389 50.227188,-1.53786 62.989598,15.2537 l 4.38471,-20.35628 c -5.164,-6.72503 -39.857717,-26.60467 -61.441638,-13.96401 z"
       id="path15"
       sodipodi:nodetypes="ccccc" /><path
       style="display:inline;fill:#d1d1d1;fill-opacity:1;fill-rule:evenodd;stroke:#000000;stroke-width:1.2;stroke-linecap:round;stroke-linejoin:round;stroke-dasharray:none"
       d="m 70.003571,215.45846 c 1.861314,7.42256 8.353214,13.39238 19.475701,17.90947 20.542748,2.68899 23.531558,-1.56194 29.128068,-4.78192 -3.89928,-3.86244 -10.3236,-7.19376 -19.27295,-9.99395 -19.704199,-4.81097 -29.481139,-5.8555 -29.330819,-3.1336 z"
       id="path14"
       sodipodi:nodetypes="ccccc" /><path
       style="fill:#8a4600;fill-opacity:1;fill-rule:evenodd;stroke:#000000;stroke-width:1.2;stroke-linecap:round;stroke-linejoin:round;stroke-dasharray:none"
       d="m 124.61673,197.51848 v 1.92607 l 3.85214,53.06323 -3.08171,-0.38521 -3.08171,-55.18191 z"
       id="path16"
       inkscape:label="path16" /><path
       style="fill:#623900;fill-opacity:1;fill-rule:evenodd;stroke:#000000;stroke-width:1.2;stroke-linecap:round;stroke-linejoin:round;stroke-dasharray:none"
       d="m 115.99227,162.88801 1.26403,15.74352 5.52233,-7.29984 3.67724,-2.0429 3.54103,-5.51584 0.13619,-1.43004 -1.94402,-3.95544 c -8.12377,4.04142 -12.18937,5.5416 -12.1968,4.50054 z"
       id="path17"
       sodipodi:nodetypes="cccccccc" /><path
       style="fill:#000000;fill-opacity:1;fill-rule:evenodd;stroke:#000000;stroke-width:1.2;stroke-linecap:round;stroke-linejoin:round;stroke-dasharray:none"
       d="m 116.81615,140.55496 10.16001,2.98541 0.57783,6.83755 3.32247,-2.31129 1.26861,2.22279 1.37973,-7.13427 c -1.53587,-3.7727 -4.05581,-5.81112 -7.55982,-6.11527 -3.67439,-0.55517 -6.724,0.61652 -9.14883,3.51508 z"
       id="path21"
       sodipodi:nodetypes="cccccccc" /></g></svg>
